<svg width="1024" height="1440" viewBox="0 0 1024 1440" fill="none" xmlns="http://www.w3.org/2000/svg">
<g clip-path="url(#clip0_4_3)">
<path d="M688.999 788.5H739.499H789.999M1024 788.5H1008H963.999M789.999 788.5L708.499 718.5H555.499L507.499 764H252.999M789.999 788.5H835.499H919.999M919.999 788.5H963.999M919.999 788.5L835.499 874.5H608.499M963.999 788.5L660.499 673H439.999L394.499 729H252.999" stroke="#E0CC49" stroke-width="4"/>
<path d="M1037 1338H919L884 1362.5H824.5" stroke="#E0CC49" stroke-width="4"/>
<path d="M525 860.5H333L233 780H17.5" stroke="#E0CC49" stroke-width="4"/>
<path d="M624 992H498.018L432.402 967H291" stroke="#E0CC49" stroke-width="4"/>
<path d="M1026 198H858.5L778 138H583.5" stroke="#E0CC49" stroke-width="4"/>
<path d="M1037 950.5H841L756.5 1028L720 950.5H641L589 888H445" stroke="#E0CC49" stroke-width="4"/>
<path d="M1024 580H828L733 520H475L434.5 580H271" stroke="#E0CC49" stroke-width="4"/>
<path d="M834 99.5H702.5L662.5 46" stroke="#E0CC49" stroke-width="4"/>
<path d="M1023 457H824.408L764 494" stroke="#E0CC49" stroke-width="4"/>
<path d="M1023 336H757L687 385H471.5" stroke="#E0CC49" stroke-width="4"/>
<path d="M630 455.327H540.5L474.5 437H387.5L309.5 475H233" stroke="#E0CC49" stroke-width="4"/>
<path d="M1022 1030.24H949.42L917.886 1012H866.329L779.234 1067H735.186L696.143 1043.55H566" stroke="#E0CC49" stroke-width="4"/>
<path d="M1023 1145.5H841L754.5 1087H627V1154.5H450.5" stroke="#E0CC49" stroke-width="4"/>
<path d="M1024 1307H863.5L802.5 1350H624.5" stroke="#E0CC49" stroke-width="4"/>
<path d="M864 1287H665.678L620.913 1246H550.641L522.532 1287H471" stroke="#E0CC49" stroke-width="4"/>
<path d="M831 304H768.5L726 273H681.5L649 304H574L541.5 273H483" stroke="#E0CC49" stroke-width="4"/>
<path d="M1024 676L905 620.96H696L653 653.405H505L383 603" stroke="#E0CC49" stroke-width="4"/>
<circle cx="233" cy="475" r="10" transform="rotate(90 233 475)" fill="#E0CC49"/>
<circle cx="628" cy="455" r="10" transform="rotate(90 628 455)" fill="#E0CC49"/>
<circle cx="614" cy="875" r="10" transform="rotate(90 614 875)" fill="#E0CC49"/>
<circle cx="445" cy="888" r="10" transform="rotate(90 445 888)" fill="#E0CC49"/>
<circle cx="624" cy="992" r="10" transform="rotate(90 624 992)" fill="#E0CC49"/>
<circle cx="566" cy="1044" r="10" transform="rotate(90 566 1044)" fill="#E0CC49"/>
<circle cx="291" cy="967" r="10" transform="rotate(90 291 967)" fill="#E0CC49"/>
<circle cx="624" cy="1350" r="10" transform="rotate(90 624 1350)" fill="#E0CC49"/>
<circle cx="476" cy="1287" r="10" transform="rotate(90 476 1287)" fill="#E0CC49"/>
<circle cx="864" cy="1287" r="10" transform="rotate(90 864 1287)" fill="#E0CC49"/>
<circle cx="824" cy="1363" r="10" transform="rotate(90 824 1363)" fill="#E0CC49"/>
<circle cx="460" cy="1155" r="10" transform="rotate(90 460 1155)" fill="#E0CC49"/>
<circle cx="827" cy="303" r="10" transform="rotate(90 827 303)" fill="#E0CC49"/>
<circle cx="834" cy="100" r="10" transform="rotate(90 834 100)" fill="#E0CC49"/>
<circle cx="664" cy="44" r="10" transform="rotate(90 664 44)" fill="#E0CC49"/>
<circle cx="271" cy="580" r="10" transform="rotate(90 271 580)" fill="#E0CC49"/>
<circle cx="383" cy="600" r="10" transform="rotate(90 383 600)" fill="#E0CC49"/>
<circle cx="253" cy="728" r="10" transform="rotate(90 253 728)" fill="#E0CC49"/>
<circle cx="17" cy="780" r="10" transform="rotate(90 17 780)" fill="#D1CB25"/>
<circle cx="251" cy="764" r="10" transform="rotate(90 251 764)" fill="#E0CC49"/>
<circle cx="522" cy="861" r="10" transform="rotate(90 522 861)" fill="#E0CC49"/>
<circle cx="685" cy="790" r="10" transform="rotate(90 685 790)" fill="#E0CC49"/>
<circle cx="491" cy="271" r="10" transform="rotate(90 491 271)" fill="#E0CC49"/>
<circle cx="584" cy="138" r="10" transform="rotate(90 584 138)" fill="#E0CC49"/>
<circle cx="471" cy="385" r="10" transform="rotate(90 471 385)" fill="#E0CC49"/>
<circle cx="765" cy="492" r="10" transform="rotate(90 765 492)" fill="#E0CC49"/>
<path d="M1026 1347H963.807L945.36 1360H914" stroke="#EDE4AE" stroke-opacity="0.5" stroke-width="2"/>
<path d="M1041 1277H936.946L897.399 1298H782" stroke="#EDE4AE" stroke-opacity="0.5" stroke-width="2"/>
<path d="M1013.25 871H908.203L876.25 891" stroke="#EDE4AE" stroke-opacity="0.5" stroke-width="2"/>
<path d="M1025 1206.62H986.641L969.975 1197H942.727L896.696 1226H873.416L852.782 1213.64H784" stroke="#EDE4AE" stroke-opacity="0.5" stroke-width="2"/>
<ellipse cx="964.5" cy="671" rx="5" ry="5.5" transform="rotate(90 964.5 671)" fill="#EDE4AE" fill-opacity="0.5"/>
<path d="M969 671C969 673.122 967.077 675 964.5 675C961.923 675 960 673.122 960 671C960 668.878 961.923 667 964.5 667C967.077 667 969 668.878 969 671Z" stroke="#EDE4AE" stroke-opacity="0.5" stroke-width="2"/>
<path d="M966 671H896.224L875 644" stroke="#EDE4AE" stroke-opacity="0.5" stroke-width="2"/>
<ellipse cx="833" cy="756.5" rx="5.5" ry="5" transform="rotate(90 833 756.5)" fill="#EDE4AE" fill-opacity="0.5"/>
<path d="M837 756.5C837 759.077 835.122 761 833 761C830.878 761 829 759.077 829 756.5C829 753.923 830.878 752 833 752C835.122 752 837 753.923 837 756.5Z" stroke="#EDE4AE" stroke-opacity="0.5" stroke-width="2"/>
<path d="M834 757H800.954L778.483 741H754.954L737.77 757H698.115L680.931 741H650" stroke="#EDE4AE" stroke-opacity="0.5" stroke-width="2"/>
<circle cx="894" cy="1327" r="5" transform="rotate(90 894 1327)" fill="#EDE4AE" fill-opacity="0.5"/>
<circle cx="894" cy="1327" r="4" transform="rotate(90 894 1327)" stroke="#EDE4AE" stroke-opacity="0.5" stroke-width="2"/>
<path d="M894 1327H789.036L765.343 1306H728.151L713.274 1327H686" stroke="#EDE4AE" stroke-opacity="0.5" stroke-width="2"/>
<ellipse cx="908.5" cy="1360" rx="5" ry="5.5" transform="rotate(90 908.5 1360)" fill="#EDE4AE" fill-opacity="0.5"/>
<path d="M913 1360C913 1362.12 911.077 1364 908.5 1364C905.923 1364 904 1362.12 904 1360C904 1357.88 905.923 1356 908.5 1356C911.077 1356 913 1357.88 913 1360Z" stroke="#EDE4AE" stroke-opacity="0.5" stroke-width="2"/>
<circle cx="875.5" cy="644.5" r="5.5" transform="rotate(90 875.5 644.5)" fill="#EDE4AE" fill-opacity="0.5"/>
<circle cx="875.5" cy="644.5" r="4.5" transform="rotate(90 875.5 644.5)" stroke="#EDE4AE" stroke-opacity="0.5" stroke-width="2"/>
<circle cx="876.25" cy="890" r="5" transform="rotate(90 876.25 890)" fill="#EDE4AE" fill-opacity="0.5"/>
<circle cx="876.25" cy="890" r="4" transform="rotate(90 876.25 890)" stroke="#EDE4AE" stroke-opacity="0.5" stroke-width="2"/>
<circle cx="835" cy="900" r="5" transform="rotate(90 835 900)" fill="#EDE4AE" fill-opacity="0.5"/>
<circle cx="835" cy="900" r="4" transform="rotate(90 835 900)" stroke="#EDE4AE" stroke-opacity="0.5" stroke-width="2"/>
<circle cx="784" cy="1298" r="5" transform="rotate(90 784 1298)" fill="#EDE4AE" fill-opacity="0.5"/>
<circle cx="784" cy="1298" r="4" transform="rotate(90 784 1298)" stroke="#EDE4AE" stroke-opacity="0.5" stroke-width="2"/>
<path d="M837 900.164H789.657L754.746 891H708.725L667.466 910H627" stroke="#EDE4AE" stroke-opacity="0.5" stroke-width="2"/>
<circle cx="782.5" cy="1212.5" r="5.5" transform="rotate(90 782.5 1212.5)" fill="#EDE4AE" fill-opacity="0.5"/>
<circle cx="782.5" cy="1212.5" r="4.5" transform="rotate(90 782.5 1212.5)" stroke="#EDE4AE" stroke-opacity="0.5" stroke-width="2"/>
<circle cx="647" cy="741" r="5" transform="rotate(90 647 741)" fill="#EDE4AE" fill-opacity="0.5"/>
<circle cx="647" cy="741" r="4" transform="rotate(90 647 741)" stroke="#EDE4AE" stroke-opacity="0.5" stroke-width="2"/>
<circle cx="430" cy="1032" r="5" transform="rotate(90 430 1032)" fill="#EDE4AE" fill-opacity="0.5"/>
<circle cx="430" cy="1032" r="4" transform="rotate(90 430 1032)" stroke="#EDE4AE" stroke-opacity="0.5" stroke-width="2"/>
<path d="M696 1076H594.231L541.226 1035H427" stroke="#EDE4AE" stroke-opacity="0.5" stroke-width="2"/>
<ellipse cx="686.5" cy="1327" rx="5" ry="5.5" transform="rotate(90 686.5 1327)" fill="#EDE4AE" fill-opacity="0.5"/>
<path d="M691 1327C691 1329.12 689.077 1331 686.5 1331C683.923 1331 682 1329.12 682 1327C682 1324.88 683.923 1323 686.5 1323C689.077 1323 691 1324.88 691 1327Z" stroke="#EDE4AE" stroke-opacity="0.5" stroke-width="2"/>
<ellipse cx="693.5" cy="1076" rx="5" ry="5.5" transform="rotate(90 693.5 1076)" fill="#EDE4AE" fill-opacity="0.5"/>
<path d="M698 1076C698 1078.12 696.077 1080 693.5 1080C690.923 1080 689 1078.12 689 1076C689 1073.88 690.923 1072 693.5 1072C696.077 1072 698 1073.88 698 1076Z" stroke="#EDE4AE" stroke-opacity="0.5" stroke-width="2"/>
<ellipse cx="626" cy="909.5" rx="5.5" ry="5" transform="rotate(90 626 909.5)" fill="#EDE4AE" fill-opacity="0.5"/>
<path d="M630 909.5C630 912.077 628.122 914 626 914C623.878 914 622 912.077 622 909.5C622 906.923 623.878 905 626 905C628.122 905 630 906.923 630 909.5Z" stroke="#EDE4AE" stroke-opacity="0.5" stroke-width="2"/>
<path d="M728 778.143H581.662L518.573 818L491.321 778.143H432.338L393.514 746H286" stroke="#B7AE8F" stroke-opacity="0.3" stroke-width="2"/>
<path d="M694 428H569.085L509.051 397H364" stroke="#B7AE8F" stroke-opacity="0.3" stroke-width="2"/>
<path d="M716 478H517.284L464.99 504H304" stroke="#B7AE8F" stroke-opacity="0.3" stroke-width="2"/>
<path d="M716 598H569.716L498.813 568H306.255L276.028 598H154" stroke="#B7AE8F" stroke-opacity="0.3" stroke-width="2"/>
<path d="M780 664L691.075 635.349H534.895L502.763 652.238H392.167L301 626" stroke="#B7AE8F" stroke-opacity="0.3" stroke-width="2"/>
<path d="M780 932.467H643.937L579.27 903H483.951V937H352" stroke="#B7AE8F" stroke-opacity="0.3" stroke-width="2"/>
<path d="M720 829.616H665.724L642.143 820H603.588L538.458 849H505.518L476.322 836.637H379" stroke="#B7AE8F" stroke-opacity="0.3" stroke-width="2"/>
<ellipse cx="697.5" cy="535" rx="5" ry="7.5" transform="rotate(90 697.5 535)" fill="#B7AE8F" fill-opacity="0.3"/>
<path d="M704 535C704 535.942 703.427 536.918 702.249 537.703C701.078 538.484 699.401 539 697.5 539C695.599 539 693.922 538.484 692.751 537.703C691.573 536.918 691 535.942 691 535C691 534.058 691.573 533.082 692.751 532.297C693.922 531.516 695.599 531 697.5 531C699.401 531 701.078 531.516 702.249 532.297C703.427 533.082 704 534.058 704 535Z" stroke="#B7AE8F" stroke-opacity="0.3" stroke-width="2"/>
<path d="M698 534H599.854L570 505" stroke="#B7AE8F" stroke-opacity="0.3" stroke-width="2"/>
<ellipse cx="778" cy="662" rx="5" ry="8" transform="rotate(90 778 662)" fill="#B7AE8F" fill-opacity="0.3"/>
<path d="M785 662C785 662.911 784.406 663.888 783.127 664.688C781.862 665.478 780.052 666 778 666C775.948 666 774.138 665.478 772.873 664.688C771.594 663.888 771 662.911 771 662C771 661.089 771.594 660.112 772.873 659.312C774.138 658.522 775.948 658 778 658C780.052 658 781.862 658.522 783.127 659.312C784.406 660.112 785 661.089 785 662Z" stroke="#B7AE8F" stroke-opacity="0.3" stroke-width="2"/>
<ellipse cx="729.5" cy="778" rx="5" ry="7.5" transform="rotate(90 729.5 778)" fill="#B7AE8F" fill-opacity="0.3"/>
<path d="M736 778C736 778.942 735.427 779.918 734.249 780.703C733.078 781.484 731.401 782 729.5 782C727.599 782 725.922 781.484 724.751 780.703C723.573 779.918 723 778.942 723 778C723 777.058 723.573 776.082 724.751 775.297C725.922 774.516 727.599 774 729.5 774C731.401 774 733.078 774.516 734.249 775.297C735.427 776.082 736 777.058 736 778Z" stroke="#B7AE8F" stroke-opacity="0.3" stroke-width="2"/>
<ellipse cx="713.5" cy="832" rx="5" ry="7.5" transform="rotate(90 713.5 832)" fill="#B7AE8F" fill-opacity="0.3"/>
<path d="M720 832C720 832.942 719.427 833.918 718.249 834.703C717.078 835.484 715.401 836 713.5 836C711.599 836 709.922 835.484 708.751 834.703C707.573 833.918 707 832.942 707 832C707 831.058 707.573 830.082 708.751 829.297C709.922 828.516 711.599 828 713.5 828C715.401 828 717.078 828.516 718.249 829.297C719.427 830.082 720 831.058 720 832Z" stroke="#B7AE8F" stroke-opacity="0.3" stroke-width="2"/>
<ellipse cx="781" cy="931" rx="5" ry="8" transform="rotate(90 781 931)" fill="#B7AE8F" fill-opacity="0.3"/>
<path d="M788 931C788 931.911 787.406 932.888 786.127 933.688C784.862 934.478 783.052 935 781 935C778.948 935 777.138 934.478 775.873 933.688C774.594 932.888 774 931.911 774 931C774 930.089 774.594 929.112 775.873 928.312C777.138 927.522 778.948 927 781 927C783.052 927 784.862 927.522 786.127 928.312C787.406 929.112 788 930.089 788 931Z" stroke="#B7AE8F" stroke-opacity="0.3" stroke-width="2"/>
<ellipse cx="661.5" cy="1006" rx="5" ry="7.5" transform="rotate(90 661.5 1006)" fill="#B7AE8F" fill-opacity="0.3"/>
<path d="M668 1006C668 1006.94 667.427 1007.92 666.249 1008.7C665.078 1009.48 663.401 1010 661.5 1010C659.599 1010 657.922 1009.48 656.751 1008.7C655.573 1007.92 655 1006.94 655 1006C655 1005.06 655.573 1004.08 656.751 1003.3C657.922 1002.52 659.599 1002 661.5 1002C663.401 1002 665.078 1002.52 666.249 1003.3C667.427 1004.08 668 1005.06 668 1006Z" stroke="#B7AE8F" stroke-opacity="0.3" stroke-width="2"/>
<path d="M661 1006H513.142L479.767 985H427.376L406.42 1006H368" stroke="#B7AE8F" stroke-opacity="0.3" stroke-width="2"/>
<ellipse cx="574" cy="505.5" rx="5.5" ry="8" transform="rotate(90 574 505.5)" fill="#B7AE8F" fill-opacity="0.3"/>
<path d="M581 505.5C581 506.595 580.355 507.696 579.09 508.565C577.829 509.432 576.033 510 574 510C571.967 510 570.171 509.432 568.91 508.565C567.645 507.696 567 506.595 567 505.5C567 504.405 567.645 503.304 568.91 502.435C570.171 501.568 571.967 501 574 501C576.033 501 577.829 501.568 579.09 502.435C580.355 503.304 581 504.405 581 505.5Z" stroke="#B7AE8F" stroke-opacity="0.3" stroke-width="2"/>
<ellipse cx="421" cy="539" rx="5" ry="7" transform="rotate(90 421 539)" fill="#B7AE8F" fill-opacity="0.3"/>
<path d="M427 539C427 539.974 426.449 540.95 425.368 541.722C424.29 542.492 422.749 543 421 543C419.251 543 417.71 542.492 416.632 541.722C415.551 540.95 415 539.974 415 539C415 538.026 415.551 537.05 416.632 536.278C417.71 535.508 419.251 535 421 535C422.749 535 424.29 535.508 425.368 536.278C426.449 537.05 427 538.026 427 539Z" stroke="#B7AE8F" stroke-opacity="0.3" stroke-width="2"/>
<ellipse cx="423" cy="810.5" rx="5.5" ry="7" transform="rotate(90 423 810.5)" fill="#B7AE8F" fill-opacity="0.3"/>
<path d="M429 810.5C429 812.774 426.552 815 423 815C419.448 815 417 812.774 417 810.5C417 808.226 419.448 806 423 806C426.552 806 429 808.226 429 810.5Z" stroke="#B7AE8F" stroke-opacity="0.3" stroke-width="2"/>
<path d="M422 539.164H355.27L306.06 530H241.194L183.038 549H126" stroke="#B7AE8F" stroke-opacity="0.3" stroke-width="2"/>
<path d="M423 811H329.175L280.308 798H175" stroke="#B7AE8F" stroke-opacity="0.3" stroke-width="2"/>
<ellipse cx="690.5" cy="428" rx="5" ry="7.5" transform="rotate(90 690.5 428)" fill="#B7AE8F" fill-opacity="0.3"/>
<path d="M697 428C697 428.942 696.427 429.918 695.249 430.703C694.078 431.484 692.401 432 690.5 432C688.599 432 686.922 431.484 685.751 430.703C684.573 429.918 684 428.942 684 428C684 427.058 684.573 426.082 685.751 425.297C686.922 424.516 688.599 424 690.5 424C692.401 424 694.078 424.516 695.249 425.297C696.427 426.082 697 427.058 697 428Z" stroke="#B7AE8F" stroke-opacity="0.3" stroke-width="2"/>
<ellipse cx="371" cy="395" rx="5" ry="7" transform="rotate(90 371 395)" fill="#B7AE8F" fill-opacity="0.3"/>
<path d="M377 395C377 395.974 376.449 396.95 375.368 397.722C374.29 398.492 372.749 399 371 399C369.251 399 367.71 398.492 366.632 397.722C365.551 396.95 365 395.974 365 395C365 394.026 365.551 393.05 366.632 392.278C367.71 391.508 369.251 391 371 391C372.749 391 374.29 391.508 375.368 392.278C376.449 393.05 377 394.026 377 395Z" stroke="#B7AE8F" stroke-opacity="0.3" stroke-width="2"/>
<ellipse cx="386" cy="836.5" rx="5.5" ry="8" transform="rotate(90 386 836.5)" fill="#B7AE8F" fill-opacity="0.3"/>
<path d="M393 836.5C393 837.595 392.355 838.696 391.09 839.565C389.829 840.432 388.033 841 386 841C383.967 841 382.171 840.432 380.91 839.565C379.645 838.696 379 837.595 379 836.5C379 835.405 379.645 834.304 380.91 833.435C382.171 832.568 383.967 832 386 832C388.033 832 389.829 832.568 391.09 833.435C392.355 834.304 393 835.405 393 836.5Z" stroke="#B7AE8F" stroke-opacity="0.3" stroke-width="2"/>
<ellipse cx="304" cy="503" rx="5" ry="7" transform="rotate(90 304 503)" fill="#B7AE8F" fill-opacity="0.3"/>
<path d="M310 503C310 503.974 309.449 504.95 308.368 505.722C307.29 506.492 305.749 507 304 507C302.251 507 300.71 506.492 299.632 505.722C298.551 504.95 298 503.974 298 503C298 502.026 298.551 501.05 299.632 500.278C300.71 499.508 302.251 499 304 499C305.749 499 307.29 499.508 308.368 500.278C309.449 501.05 310 502.026 310 503Z" stroke="#B7AE8F" stroke-opacity="0.3" stroke-width="2"/>
<ellipse cx="161" cy="688" rx="5" ry="7" transform="rotate(90 161 688)" fill="#B7AE8F" fill-opacity="0.3"/>
<path d="M167 688C167 688.974 166.449 689.95 165.368 690.722C164.29 691.492 162.749 692 161 692C159.251 692 157.71 691.492 156.632 690.722C155.551 689.95 155 688.974 155 688C155 687.026 155.551 686.05 156.632 685.278C157.71 684.508 159.251 684 161 684C162.749 684 164.29 684.508 165.368 685.278C166.449 686.05 167 687.026 167 688Z" stroke="#B7AE8F" stroke-opacity="0.3" stroke-width="2"/>
<path d="M542 732H398.236L323.36 691H162" stroke="#B7AE8F" stroke-opacity="0.3" stroke-width="2"/>
<ellipse cx="371.5" cy="1006" rx="5" ry="7.5" transform="rotate(90 371.5 1006)" fill="#B7AE8F" fill-opacity="0.3"/>
<path d="M378 1006C378 1006.94 377.427 1007.92 376.249 1008.7C375.078 1009.48 373.401 1010 371.5 1010C369.599 1010 367.922 1009.48 366.751 1008.7C365.573 1007.92 365 1006.94 365 1006C365 1005.06 365.573 1004.08 366.751 1003.3C367.922 1002.52 369.599 1002 371.5 1002C373.401 1002 375.078 1002.52 376.249 1003.3C377.427 1004.08 378 1005.06 378 1006Z" stroke="#B7AE8F" stroke-opacity="0.3" stroke-width="2"/>
<ellipse cx="711" cy="478.5" rx="5.5" ry="7" transform="rotate(90 711 478.5)" fill="#B7AE8F" fill-opacity="0.3"/>
<path d="M717 478.5C717 480.774 714.552 483 711 483C707.448 483 705 480.774 705 478.5C705 476.226 707.448 474 711 474C714.552 474 717 476.226 717 478.5Z" stroke="#B7AE8F" stroke-opacity="0.3" stroke-width="2"/>
<ellipse cx="359" cy="938" rx="5" ry="7" transform="rotate(90 359 938)" fill="#B7AE8F" fill-opacity="0.3"/>
<path d="M365 938C365 938.974 364.449 939.95 363.368 940.722C362.29 941.492 360.749 942 359 942C357.251 942 355.71 941.492 354.632 940.722C353.551 939.95 353 938.974 353 938C353 937.026 353.551 936.05 354.632 935.278C355.71 934.508 357.251 934 359 934C360.749 934 362.29 934.508 363.368 935.278C364.449 936.05 365 937.026 365 938Z" stroke="#B7AE8F" stroke-opacity="0.3" stroke-width="2"/>
<ellipse cx="290" cy="745.5" rx="5.5" ry="8" transform="rotate(90 290 745.5)" fill="#B7AE8F" fill-opacity="0.3"/>
<path d="M297 745.5C297 746.595 296.355 747.696 295.09 748.565C293.829 749.432 292.033 750 290 750C287.967 750 286.171 749.432 284.91 748.565C283.645 747.696 283 746.595 283 745.5C283 744.405 283.645 743.304 284.91 742.435C286.171 741.568 287.967 741 290 741C292.033 741 293.829 741.568 295.09 742.435C296.355 743.304 297 744.405 297 745.5Z" stroke="#B7AE8F" stroke-opacity="0.3" stroke-width="2"/>
<ellipse cx="534" cy="731.5" rx="5.5" ry="8" transform="rotate(90 534 731.5)" fill="#B7AE8F" fill-opacity="0.3"/>
<path d="M541 731.5C541 732.595 540.355 733.696 539.09 734.565C537.829 735.432 536.033 736 534 736C531.967 736 530.171 735.432 528.91 734.565C527.645 733.696 527 732.595 527 731.5C527 730.405 527.645 729.304 528.91 728.435C530.171 727.568 531.967 727 534 727C536.033 727 537.829 727.568 539.09 728.435C540.355 729.304 541 730.405 541 731.5Z" stroke="#B7AE8F" stroke-opacity="0.3" stroke-width="2"/>
<ellipse cx="302" cy="648" rx="5" ry="8" transform="rotate(90 302 648)" fill="#B7AE8F" fill-opacity="0.3"/>
<path d="M309 648C309 648.911 308.406 649.888 307.127 650.688C305.862 651.478 304.052 652 302 652C299.948 652 298.138 651.478 296.873 650.688C295.594 649.888 295 648.911 295 648C295 647.089 295.594 646.112 296.873 645.312C298.138 644.522 299.948 644 302 644C304.052 644 305.862 644.522 307.127 645.312C308.406 646.112 309 647.089 309 648Z" stroke="#B7AE8F" stroke-opacity="0.3" stroke-width="2"/>
<ellipse cx="175" cy="797.5" rx="5.5" ry="7" transform="rotate(90 175 797.5)" fill="#B7AE8F" fill-opacity="0.3"/>
<path d="M181 797.5C181 799.774 178.552 802 175 802C171.448 802 169 799.774 169 797.5C169 795.226 171.448 793 175 793C178.552 793 181 795.226 181 797.5Z" stroke="#B7AE8F" stroke-opacity="0.3" stroke-width="2"/>
<ellipse cx="712" cy="593.5" rx="5.5" ry="8" transform="rotate(90 712 593.5)" fill="#B7AE8F" fill-opacity="0.3"/>
<path d="M719 593.5C719 594.595 718.355 595.696 717.09 596.565C715.829 597.432 714.033 598 712 598C709.967 598 708.171 597.432 706.91 596.565C705.645 595.696 705 594.595 705 593.5C705 592.405 705.645 591.304 706.91 590.435C708.171 589.568 709.967 589 712 589C714.033 589 715.829 589.568 717.09 590.435C718.355 591.304 719 592.405 719 593.5Z" stroke="#B7AE8F" stroke-opacity="0.3" stroke-width="2"/>
<ellipse cx="161" cy="599.5" rx="5.5" ry="7" transform="rotate(90 161 599.5)" fill="#B7AE8F" fill-opacity="0.3"/>
<path d="M167 599.5C167 601.774 164.552 604 161 604C157.448 604 155 601.774 155 599.5C155 597.226 157.448 595 161 595C164.552 595 167 597.226 167 599.5Z" stroke="#B7AE8F" stroke-opacity="0.3" stroke-width="2"/>
<path d="M1036 1411H973.807L955.36 1424H924" stroke="#E4EBB3" stroke-opacity="0.5" stroke-width="2"/>
<path d="M1024 810H935.424L892.854 774H790" stroke="#EDE4AE" stroke-opacity="0.5" stroke-width="2"/>
<path d="M1029 896H888.162L851.1 922H737" stroke="#EDE4AE" stroke-opacity="0.5" stroke-width="2"/>
<path d="M1027 917H921.953L890 937" stroke="#EDE4AE" stroke-opacity="0.5" stroke-width="2"/>
<path d="M1029 1016H925.404L875.191 986H738.825L717.418 1016H631" stroke="#EDE4AE" stroke-opacity="0.5" stroke-width="2"/>
<path d="M1029 1065L966.066 1036.35H855.534L832.793 1053.24H754.521L690 1027" stroke="#EDE4AE" stroke-opacity="0.5" stroke-width="2"/>
<path d="M857.372 1132.47H883.244H909.116M1029 1132.47H1020.8H998.26M909.116 1132.47L867.362 1097.03H788.977L764.386 1120.06H634M909.116 1132.47H932.427H975.718M975.718 1132.47H998.26M975.718 1132.47L932.427 1176H816.13M998.26 1132.47L842.771 1074H729.804L706.493 1102.35H634" stroke="#EDE4AE" stroke-opacity="0.5" stroke-width="2"/>
<path d="M1029 1395H944.23L912.013 1417H818" stroke="#EDE4AE" stroke-opacity="0.5" stroke-width="2"/>
<path d="M1028 1252.62H989.641L972.975 1243H945.727L899.696 1272H876.416L855.782 1259.64H787" stroke="#EDE4AE" stroke-opacity="0.5" stroke-width="2"/>
<ellipse cx="1006.5" cy="769" rx="5" ry="5.5" transform="rotate(90 1006.5 769)" fill="#EDE4AE" fill-opacity="0.5"/>
<path d="M1011 769C1011 771.122 1009.08 773 1006.5 773C1003.92 773 1002 771.122 1002 769C1002 766.878 1003.92 765 1006.5 765C1009.08 765 1011 766.878 1011 769Z" stroke="#EDE4AE" stroke-opacity="0.5" stroke-width="2"/>
<path d="M1007 769H937.224L916 756" stroke="#EDE4AE" stroke-opacity="0.5" stroke-width="2"/>
<ellipse cx="1003" cy="848.5" rx="5.5" ry="5" transform="rotate(90 1003 848.5)" fill="#EDE4AE" fill-opacity="0.5"/>
<path d="M1007 848.5C1007 851.077 1005.12 853 1003 853C1000.88 853 999 851.077 999 848.5C999 845.923 1000.88 844 1003 844C1005.12 844 1007 845.923 1007 848.5Z" stroke="#EDE4AE" stroke-opacity="0.5" stroke-width="2"/>
<path d="M1006 848H972.954L950.483 832H926.954L909.77 848H870.115L852.931 832H822" stroke="#EDE4AE" stroke-opacity="0.5" stroke-width="2"/>
<circle cx="931" cy="1391" r="5" transform="rotate(90 931 1391)" fill="#EDE4AE" fill-opacity="0.5"/>
<circle cx="931" cy="1391" r="4" transform="rotate(90 931 1391)" stroke="#EDE4AE" stroke-opacity="0.5" stroke-width="2"/>
<path d="M931 1391H826.036L802.343 1370H765.151L750.274 1391H723" stroke="#EDE4AE" stroke-opacity="0.5" stroke-width="2"/>
<ellipse cx="923.5" cy="1424" rx="5" ry="5.5" transform="rotate(90 923.5 1424)" fill="#E4EBB3" fill-opacity="0.5"/>
<path d="M928 1424C928 1426.12 926.077 1428 923.5 1428C920.923 1428 919 1426.12 919 1424C919 1421.88 920.923 1420 923.5 1420C926.077 1420 928 1421.88 928 1424Z" stroke="#E4EBB3" stroke-opacity="0.5" stroke-width="2"/>
<circle cx="915.5" cy="756.5" r="5.5" transform="rotate(90 915.5 756.5)" fill="#EDE4AE" fill-opacity="0.5"/>
<circle cx="915.5" cy="756.5" r="4.5" transform="rotate(90 915.5 756.5)" stroke="#EDE4AE" stroke-opacity="0.5" stroke-width="2"/>
<circle cx="892" cy="938" r="5" transform="rotate(90 892 938)" fill="#EDE4AE" fill-opacity="0.5"/>
<circle cx="892" cy="938" r="4" transform="rotate(90 892 938)" stroke="#EDE4AE" stroke-opacity="0.5" stroke-width="2"/>
<ellipse cx="859" cy="1131.5" rx="5.5" ry="5" transform="rotate(90 859 1131.5)" fill="#EDE4AE" fill-opacity="0.5"/>
<path d="M863 1131.5C863 1134.08 861.122 1136 859 1136C856.878 1136 855 1134.08 855 1131.5C855 1128.92 856.878 1127 859 1127C861.122 1127 863 1128.92 863 1131.5Z" stroke="#EDE4AE" stroke-opacity="0.5" stroke-width="2"/>
<circle cx="789" cy="951" r="5" transform="rotate(90 789 951)" fill="#EDE4AE" fill-opacity="0.5"/>
<circle cx="789" cy="951" r="4" transform="rotate(90 789 951)" stroke="#EDE4AE" stroke-opacity="0.5" stroke-width="2"/>
<ellipse cx="818" cy="1233.5" rx="5.5" ry="5" transform="rotate(90 818 1233.5)" fill="#EDE4AE" fill-opacity="0.5"/>
<path d="M822 1233.5C822 1236.08 820.122 1238 818 1238C815.878 1238 814 1236.08 814 1233.5C814 1230.92 815.878 1229 818 1229C820.122 1229 822 1230.92 822 1233.5Z" stroke="#EDE4AE" stroke-opacity="0.5" stroke-width="2"/>
<circle cx="818" cy="1417" r="5" transform="rotate(90 818 1417)" fill="#DCD4AE" fill-opacity="0.5"/>
<circle cx="818" cy="1417" r="4" transform="rotate(90 818 1417)" stroke="#E4EBB3" stroke-opacity="0.5" stroke-width="2"/>
<path d="M789 951.164H741.657L706.746 942H660.725L619.466 961H579" stroke="#EDE4AE" stroke-opacity="0.5" stroke-width="2"/>
<ellipse cx="812.5" cy="1176" rx="5" ry="5.5" transform="rotate(90 812.5 1176)" fill="#EDE4AE" fill-opacity="0.5"/>
<path d="M817 1176C817 1178.12 815.077 1180 812.5 1180C809.923 1180 808 1178.12 808 1176C808 1173.88 809.923 1172 812.5 1172C815.077 1172 817 1173.88 817 1176Z" stroke="#EDE4AE" stroke-opacity="0.5" stroke-width="2"/>
<path d="M818 1234H751.415L716.735 1221H642" stroke="#EDE4AE" stroke-opacity="0.5" stroke-width="2"/>
<circle cx="790" cy="774" r="5" transform="rotate(90 790 774)" fill="#EDE4AE" fill-opacity="0.5"/>
<circle cx="790" cy="774" r="4" transform="rotate(90 790 774)" stroke="#EDE4AE" stroke-opacity="0.5" stroke-width="2"/>
<circle cx="787.5" cy="1259.5" r="5.5" transform="rotate(90 787.5 1259.5)" fill="#EDE4AE" fill-opacity="0.5"/>
<circle cx="787.5" cy="1259.5" r="4.5" transform="rotate(90 787.5 1259.5)" stroke="#EDE4AE" stroke-opacity="0.5" stroke-width="2"/>
<circle cx="826" cy="832" r="5" transform="rotate(90 826 832)" fill="#EDE4AE" fill-opacity="0.5"/>
<circle cx="826" cy="832" r="4" transform="rotate(90 826 832)" stroke="#EDE4AE" stroke-opacity="0.5" stroke-width="2"/>
<ellipse cx="724.5" cy="1391" rx="5" ry="5.5" transform="rotate(90 724.5 1391)" fill="#EDE4AE" fill-opacity="0.5"/>
<path d="M729 1391C729 1393.12 727.077 1395 724.5 1395C721.923 1395 720 1393.12 720 1391C720 1388.88 721.923 1387 724.5 1387C727.077 1387 729 1388.88 729 1391Z" stroke="#EDE4AE" stroke-opacity="0.5" stroke-width="2"/>
<ellipse cx="737" cy="921.5" rx="5.5" ry="5" transform="rotate(90 737 921.5)" fill="#EDE4AE" fill-opacity="0.5"/>
<path d="M741 921.5C741 924.077 739.122 926 737 926C734.878 926 733 924.077 733 921.5C733 918.923 734.878 917 737 917C739.122 917 741 918.923 741 921.5Z" stroke="#EDE4AE" stroke-opacity="0.5" stroke-width="2"/>
<ellipse cx="690.5" cy="1027" rx="5" ry="5.5" transform="rotate(90 690.5 1027)" fill="#EDE4AE" fill-opacity="0.5"/>
<path d="M695 1027C695 1029.12 693.077 1031 690.5 1031C687.923 1031 686 1029.12 686 1027C686 1024.88 687.923 1023 690.5 1023C693.077 1023 695 1024.88 695 1027Z" stroke="#EDE4AE" stroke-opacity="0.5" stroke-width="2"/>
<ellipse cx="642" cy="1220.5" rx="5.5" ry="5" transform="rotate(90 642 1220.5)" fill="#EDE4AE" fill-opacity="0.5"/>
<path d="M646 1220.5C646 1223.08 644.122 1225 642 1225C639.878 1225 638 1223.08 638 1220.5C638 1217.92 639.878 1216 642 1216C644.122 1216 646 1217.92 646 1220.5Z" stroke="#EDE4AE" stroke-opacity="0.5" stroke-width="2"/>
<circle cx="631.5" cy="1016.5" r="5.5" transform="rotate(90 631.5 1016.5)" fill="#EDE4AE" fill-opacity="0.5"/>
<circle cx="631.5" cy="1016.5" r="4.5" transform="rotate(90 631.5 1016.5)" stroke="#EDE4AE" stroke-opacity="0.5" stroke-width="2"/>
<ellipse cx="636.5" cy="1102" rx="5" ry="5.5" transform="rotate(90 636.5 1102)" fill="#EDE4AE" fill-opacity="0.5"/>
<path d="M641 1102C641 1104.12 639.077 1106 636.5 1106C633.923 1106 632 1104.12 632 1102C632 1099.88 633.923 1098 636.5 1098C639.077 1098 641 1099.88 641 1102Z" stroke="#EDE4AE" stroke-opacity="0.5" stroke-width="2"/>
<ellipse cx="636.5" cy="1120" rx="5" ry="5.5" transform="rotate(90 636.5 1120)" fill="#EDE4AE" fill-opacity="0.5"/>
<path d="M641 1120C641 1122.12 639.077 1124 636.5 1124C633.923 1124 632 1122.12 632 1120C632 1117.88 633.923 1116 636.5 1116C639.077 1116 641 1117.88 641 1120Z" stroke="#EDE4AE" stroke-opacity="0.5" stroke-width="2"/>
<ellipse cx="579" cy="961.5" rx="5.5" ry="5" transform="rotate(90 579 961.5)" fill="#EDE4AE" fill-opacity="0.5"/>
<path d="M583 961.5C583 964.077 581.122 966 579 966C576.878 966 575 964.077 575 961.5C575 958.923 576.878 957 579 957C581.122 957 583 958.923 583 961.5Z" stroke="#EDE4AE" stroke-opacity="0.5" stroke-width="2"/>
<path d="M1035 487.143H931.372L886.695 527L867.397 487.143H825.628L798.135 455H722" stroke="#EDE4AE" stroke-opacity="0.5" stroke-width="2"/>
<path d="M1038 718H975.807L957.36 731H926" stroke="#EDE4AE" stroke-opacity="0.5" stroke-width="2"/>
<path d="M1033 107H944.424L901.854 76H799" stroke="#EDE4AE" stroke-opacity="0.5" stroke-width="2"/>
<path d="M1028 172H887.162L850.1 198H736" stroke="#EDE4AE" stroke-opacity="0.5" stroke-width="2"/>
<path d="M1028 219H922.953L891 239" stroke="#EDE4AE" stroke-opacity="0.5" stroke-width="2"/>
<path d="M1028 292H924.404L874.191 262H737.825L716.418 292H630" stroke="#EDE4AE" stroke-opacity="0.5" stroke-width="2"/>
<path d="M1028 341L965.066 312.349H854.534L831.793 329.238H753.521L689 303" stroke="#EDE4AE" stroke-opacity="0.5" stroke-width="2"/>
<path d="M851.158 404.467H877.816H904.474M1028 404.467H1019.55H996.326M904.474 404.467L861.452 369.032H780.685L755.347 392.065H621M904.474 404.467H928.493H973.099M973.099 404.467H996.326M973.099 404.467L928.493 448H808.663M996.326 404.467L836.113 346H719.714L695.696 374.347H621" stroke="#EDE4AE" stroke-opacity="0.5" stroke-width="2"/>
<path d="M1028 587.467H931.675L885.894 558H818.414V592H725" stroke="#EDE4AE" stroke-opacity="0.5" stroke-width="2"/>
<path d="M1031 702H946.23L914.013 724H820" stroke="#EDE4AE" stroke-opacity="0.5" stroke-width="2"/>
<path d="M1027 528.616H988.641L971.975 519H944.727L898.696 548H875.416L854.782 535.637H786" stroke="#EDE4AE" stroke-opacity="0.5" stroke-width="2"/>
<ellipse cx="1005.5" cy="60" rx="5" ry="5.5" transform="rotate(90 1005.5 60)" fill="#EDE4AE" fill-opacity="0.5"/>
<path d="M1010 60C1010 62.1216 1008.08 64 1005.5 64C1002.92 64 1001 62.1216 1001 60C1001 57.8784 1002.92 56 1005.5 56C1008.08 56 1010 57.8784 1010 60Z" stroke="#EDE4AE" stroke-opacity="0.5" stroke-width="2"/>
<path d="M1006 59H936.224L915 32" stroke="#EDE4AE" stroke-opacity="0.5" stroke-width="2"/>
<ellipse cx="954" cy="128.5" rx="5.5" ry="5" transform="rotate(90 954 128.5)" fill="#EDE4AE" fill-opacity="0.5"/>
<path d="M958 128.5C958 131.077 956.122 133 954 133C951.878 133 950 131.077 950 128.5C950 125.923 951.878 124 954 124C956.122 124 958 125.923 958 128.5Z" stroke="#EDE4AE" stroke-opacity="0.5" stroke-width="2"/>
<path d="M954 128H920.954L898.483 112H874.954L857.77 128H818.115L800.931 112H770" stroke="#EDE4AE" stroke-opacity="0.5" stroke-width="2"/>
<circle cx="947" cy="692" r="5" transform="rotate(90 947 692)" fill="#EDE4AE" fill-opacity="0.5"/>
<circle cx="947" cy="692" r="4" transform="rotate(90 947 692)" stroke="#EDE4AE" stroke-opacity="0.5" stroke-width="2"/>
<path d="M947 692H842.036L818.343 671H781.151L766.274 692H739" stroke="#EDE4AE" stroke-opacity="0.5" stroke-width="2"/>
<ellipse cx="925.5" cy="731" rx="5" ry="5.5" transform="rotate(90 925.5 731)" fill="#EDE4AE" fill-opacity="0.5"/>
<path d="M930 731C930 733.122 928.077 735 925.5 735C922.923 735 921 733.122 921 731C921 728.878 922.923 727 925.5 727C928.077 727 930 728.878 930 731Z" stroke="#EDE4AE" stroke-opacity="0.5" stroke-width="2"/>
<circle cx="914.5" cy="32.5" r="5.5" transform="rotate(90 914.5 32.5)" fill="#EDE4AE" fill-opacity="0.5"/>
<circle cx="914.5" cy="32.5" r="4.5" transform="rotate(90 914.5 32.5)" stroke="#EDE4AE" stroke-opacity="0.5" stroke-width="2"/>
<circle cx="891" cy="238" r="5" transform="rotate(90 891 238)" fill="#EDE4AE" fill-opacity="0.5"/>
<circle cx="891" cy="238" r="4" transform="rotate(90 891 238)" stroke="#EDE4AE" stroke-opacity="0.5" stroke-width="2"/>
<ellipse cx="849" cy="405.5" rx="5.5" ry="5" transform="rotate(90 849 405.5)" fill="#EDE4AE" fill-opacity="0.5"/>
<path d="M853 405.5C853 408.077 851.122 410 849 410C846.878 410 845 408.077 845 405.5C845 402.923 846.878 401 849 401C851.122 401 853 402.923 853 405.5Z" stroke="#EDE4AE" stroke-opacity="0.5" stroke-width="2"/>
<circle cx="819" cy="233" r="5" transform="rotate(90 819 233)" fill="#EDE4AE" fill-opacity="0.5"/>
<circle cx="819" cy="233" r="4" transform="rotate(90 819 233)" stroke="#EDE4AE" stroke-opacity="0.5" stroke-width="2"/>
<ellipse cx="817" cy="509.5" rx="5.5" ry="5" transform="rotate(90 817 509.5)" fill="#EDE4AE" fill-opacity="0.5"/>
<path d="M821 509.5C821 512.077 819.122 514 817 514C814.878 514 813 512.077 813 509.5C813 506.923 814.878 505 817 505C819.122 505 821 506.923 821 509.5Z" stroke="#EDE4AE" stroke-opacity="0.5" stroke-width="2"/>
<circle cx="820" cy="724" r="5" transform="rotate(90 820 724)" fill="#EDE4AE" fill-opacity="0.5"/>
<circle cx="820" cy="724" r="4" transform="rotate(90 820 724)" stroke="#EDE4AE" stroke-opacity="0.5" stroke-width="2"/>
<path d="M820 233.164H772.657L737.746 224H691.725L650.466 243H610" stroke="#EDE4AE" stroke-opacity="0.5" stroke-width="2"/>
<ellipse cx="811.5" cy="449" rx="5" ry="5.5" transform="rotate(90 811.5 449)" fill="#EDE4AE" fill-opacity="0.5"/>
<path d="M816 449C816 451.122 814.077 453 811.5 453C808.923 453 807 451.122 807 449C807 446.878 808.923 445 811.5 445C814.077 445 816 446.878 816 449Z" stroke="#EDE4AE" stroke-opacity="0.5" stroke-width="2"/>
<path d="M817 510H750.415L715.735 497H641" stroke="#EDE4AE" stroke-opacity="0.5" stroke-width="2"/>
<circle cx="799" cy="76" r="5" transform="rotate(90 799 76)" fill="#EDE4AE" fill-opacity="0.5"/>
<circle cx="799" cy="76" r="4" transform="rotate(90 799 76)" stroke="#EDE4AE" stroke-opacity="0.5" stroke-width="2"/>
<circle cx="786.5" cy="535.5" r="5.5" transform="rotate(90 786.5 535.5)" fill="#EDE4AE" fill-opacity="0.5"/>
<circle cx="786.5" cy="535.5" r="4.5" transform="rotate(90 786.5 535.5)" stroke="#EDE4AE" stroke-opacity="0.5" stroke-width="2"/>
<circle cx="770" cy="112" r="5" transform="rotate(90 770 112)" fill="#EDE4AE" fill-opacity="0.5"/>
<circle cx="770" cy="112" r="4" transform="rotate(90 770 112)" stroke="#EDE4AE" stroke-opacity="0.5" stroke-width="2"/>
<ellipse cx="741.5" cy="692" rx="5" ry="5.5" transform="rotate(90 741.5 692)" fill="#EDE4AE" fill-opacity="0.5"/>
<path d="M746 692C746 694.122 744.077 696 741.5 696C738.923 696 737 694.122 737 692C737 689.878 738.923 688 741.5 688C744.077 688 746 689.878 746 692Z" stroke="#EDE4AE" stroke-opacity="0.5" stroke-width="2"/>
<ellipse cx="736" cy="197.5" rx="5.5" ry="5" transform="rotate(90 736 197.5)" fill="#EDE4AE" fill-opacity="0.5"/>
<path d="M740 197.5C740 200.077 738.122 202 736 202C733.878 202 732 200.077 732 197.5C732 194.923 733.878 193 736 193C738.122 193 740 194.923 740 197.5Z" stroke="#EDE4AE" stroke-opacity="0.5" stroke-width="2"/>
<circle cx="730" cy="593" r="5" transform="rotate(90 730 593)" fill="#EDE4AE" fill-opacity="0.5"/>
<circle cx="730" cy="593" r="4" transform="rotate(90 730 593)" stroke="#EDE4AE" stroke-opacity="0.5" stroke-width="2"/>
<circle cx="722.5" cy="455.5" r="5.5" transform="rotate(90 722.5 455.5)" fill="#EDE4AE" fill-opacity="0.5"/>
<circle cx="722.5" cy="455.5" r="4.5" transform="rotate(90 722.5 455.5)" stroke="#EDE4AE" stroke-opacity="0.5" stroke-width="2"/>
<ellipse cx="689.5" cy="303" rx="5" ry="5.5" transform="rotate(90 689.5 303)" fill="#EDE4AE" fill-opacity="0.5"/>
<path d="M694 303C694 305.122 692.077 307 689.5 307C686.923 307 685 305.122 685 303C685 300.878 686.923 299 689.5 299C692.077 299 694 300.878 694 303Z" stroke="#EDE4AE" stroke-opacity="0.5" stroke-width="2"/>
<ellipse cx="641" cy="496.5" rx="5.5" ry="5" transform="rotate(90 641 496.5)" fill="#EDE4AE" fill-opacity="0.5"/>
<path d="M645 496.5C645 499.077 643.122 501 641 501C638.878 501 637 499.077 637 496.5C637 493.923 638.878 492 641 492C643.122 492 645 493.923 645 496.5Z" stroke="#EDE4AE" stroke-opacity="0.5" stroke-width="2"/>
<circle cx="630.5" cy="292.5" r="5.5" transform="rotate(90 630.5 292.5)" fill="#EDE4AE" fill-opacity="0.5"/>
<circle cx="630.5" cy="292.5" r="4.5" transform="rotate(90 630.5 292.5)" stroke="#EDE4AE" stroke-opacity="0.5" stroke-width="2"/>
<ellipse cx="620.5" cy="373" rx="5" ry="5.5" transform="rotate(90 620.5 373)" fill="#EDE4AE" fill-opacity="0.5"/>
<path d="M625 373C625 375.122 623.077 377 620.5 377C617.923 377 616 375.122 616 373C616 370.878 617.923 369 620.5 369C623.077 369 625 370.878 625 373Z" stroke="#EDE4AE" stroke-opacity="0.5" stroke-width="2"/>
<ellipse cx="619.5" cy="392" rx="5" ry="5.5" transform="rotate(90 619.5 392)" fill="#EDE4AE" fill-opacity="0.5"/>
<path d="M624 392C624 394.122 622.077 396 619.5 396C616.923 396 615 394.122 615 392C615 389.878 616.923 388 619.5 388C622.077 388 624 389.878 624 392Z" stroke="#EDE4AE" stroke-opacity="0.5" stroke-width="2"/>
<ellipse cx="610" cy="243.5" rx="5.5" ry="5" transform="rotate(90 610 243.5)" fill="#EDE4AE" fill-opacity="0.5"/>
<path d="M614 243.5C614 246.077 612.122 248 610 248C607.878 248 606 246.077 606 243.5C606 240.923 607.878 239 610 239C612.122 239 614 240.923 614 243.5Z" stroke="#EDE4AE" stroke-opacity="0.5" stroke-width="2"/>
</g>
<defs>
<clipPath id="clip0_4_3">
<rect width="1440" height="1024" fill="white" transform="matrix(0 1 -1 0 1024 0)"/>
</clipPath>
</defs>
</svg>
