<svg width="1440" height="1024" viewBox="0 0 1440 1024" fill="none" xmlns="http://www.w3.org/2000/svg">
<rect width="1440" height="1024" fill="#1E1E1E"/>
<g clip-path="url(#clip0_0_1)">
<path d="M788.5 335.001V284.501V234.001M788.5 0V16.0015V60.0015M788.5 234.001L718.5 315.501V468.501L764 516.501V771.001M788.5 234.001V188.501V104.001M788.5 104.001V60.0015M788.5 104.001L874.5 188.501V415.501M788.5 60.0015L673 363.501V584.001L729 629.501V771.001" stroke="#E0CC49" stroke-width="4"/>
<path d="M1338 -13V105L1362.5 140V199.5" stroke="#E0CC49" stroke-width="4"/>
<path d="M860.5 499V691L780 791V1006.5" stroke="#E0CC49" stroke-width="4"/>
<path d="M992 400V525.982L967 591.598V733" stroke="#E0CC49" stroke-width="4"/>
<path d="M198 -2V165.5L138 246V440.5" stroke="#E0CC49" stroke-width="4"/>
<path d="M950.5 -13V183L1028 267.5L950.5 304V383L888 435V579" stroke="#E0CC49" stroke-width="4"/>
<path d="M580 0V196L520 291V549L580 589.5V753" stroke="#E0CC49" stroke-width="4"/>
<path d="M99.5 190V321.5L46 361.5" stroke="#E0CC49" stroke-width="4"/>
<path d="M457 1V199.592L494 260" stroke="#E0CC49" stroke-width="4"/>
<path d="M336 1V267L385 337V552.5" stroke="#E0CC49" stroke-width="4"/>
<path d="M455.327 394V483.5L437 549.5V636.5L475 714.5V791" stroke="#E0CC49" stroke-width="4"/>
<path d="M1030.24 2V74.5796L1012 106.114V157.671L1067 244.766V288.814L1043.55 327.857V458" stroke="#E0CC49" stroke-width="4"/>
<path d="M1145.5 1V183L1087 269.5V397H1154.5V573.5" stroke="#E0CC49" stroke-width="4"/>
<path d="M1307 0V160.5L1350 221.5V399.5" stroke="#E0CC49" stroke-width="4"/>
<path d="M1287 160V358.322L1246 403.087V473.359L1287 501.468V553" stroke="#E0CC49" stroke-width="4"/>
<path d="M304 193V255.5L273 298V342.5L304 375V450L273 482.5V541" stroke="#E0CC49" stroke-width="4"/>
<path d="M676 0L620.96 119V328L653.405 371V519L603 641" stroke="#E0CC49" stroke-width="4"/>
<circle cx="475" cy="791" r="10" fill="#E0CC49"/>
<circle cx="455" cy="396" r="10" fill="#E0CC49"/>
<circle cx="875" cy="410" r="10" fill="#E0CC49"/>
<circle cx="888" cy="579" r="10" fill="#E0CC49"/>
<circle cx="992" cy="400" r="10" fill="#E0CC49"/>
<circle cx="1044" cy="458" r="10" fill="#E0CC49"/>
<circle cx="967" cy="733" r="10" fill="#E0CC49"/>
<circle cx="1350" cy="400" r="10" fill="#E0CC49"/>
<circle cx="1287" cy="548" r="10" fill="#E0CC49"/>
<circle cx="1287" cy="160" r="10" fill="#E0CC49"/>
<circle cx="1363" cy="200" r="10" fill="#E0CC49"/>
<circle cx="1155" cy="564" r="10" fill="#E0CC49"/>
<circle cx="303" cy="197" r="10" fill="#E0CC49"/>
<circle cx="100" cy="190" r="10" fill="#E0CC49"/>
<circle cx="44" cy="360" r="10" fill="#E0CC49"/>
<circle cx="580" cy="753" r="10" fill="#E0CC49"/>
<circle cx="600" cy="641" r="10" fill="#E0CC49"/>
<circle cx="728" cy="771" r="10" fill="#E0CC49"/>
<circle cx="780" cy="1007" r="10" fill="#D1CB25"/>
<circle cx="764" cy="773" r="10" fill="#E0CC49"/>
<circle cx="861" cy="502" r="10" fill="#E0CC49"/>
<circle cx="790" cy="339" r="10" fill="#E0CC49"/>
<circle cx="271" cy="533" r="10" fill="#E0CC49"/>
<circle cx="138" cy="440" r="10" fill="#E0CC49"/>
<circle cx="385" cy="553" r="10" fill="#E0CC49"/>
<circle cx="492" cy="259" r="10" fill="#E0CC49"/>
<path d="M1347 -2V60.1929L1360 78.64V110" stroke="#EDE4AE" stroke-opacity="0.5" stroke-width="2"/>
<path d="M1277 -17V87.0538L1298 126.601V242" stroke="#EDE4AE" stroke-opacity="0.5" stroke-width="2"/>
<path d="M871 10.75V115.797L891 147.75" stroke="#EDE4AE" stroke-opacity="0.5" stroke-width="2"/>
<path d="M1206.62 -1V37.3589L1197 54.0252V81.2733L1226 127.304V150.584L1213.64 171.218V240" stroke="#EDE4AE" stroke-opacity="0.5" stroke-width="2"/>
<ellipse cx="671" cy="59.5" rx="5" ry="5.5" fill="#EDE4AE" fill-opacity="0.5"/>
<path d="M671 55C673.122 55 675 56.9229 675 59.5C675 62.0771 673.122 64 671 64C668.878 64 667 62.0771 667 59.5C667 56.9229 668.878 55 671 55Z" stroke="#EDE4AE" stroke-opacity="0.5" stroke-width="2"/>
<path d="M671 58V127.776L644 149" stroke="#EDE4AE" stroke-opacity="0.5" stroke-width="2"/>
<ellipse cx="756.5" cy="191" rx="5.5" ry="5" fill="#EDE4AE" fill-opacity="0.5"/>
<path d="M756.5 187C759.077 187 761 188.878 761 191C761 193.122 759.077 195 756.5 195C753.923 195 752 193.122 752 191C752 188.878 753.923 187 756.5 187Z" stroke="#EDE4AE" stroke-opacity="0.5" stroke-width="2"/>
<path d="M757 190V223.046L741 245.517V269.046L757 286.23V325.885L741 343.069V374" stroke="#EDE4AE" stroke-opacity="0.5" stroke-width="2"/>
<circle cx="1327" cy="130" r="5" fill="#EDE4AE" fill-opacity="0.5"/>
<circle cx="1327" cy="130" r="4" stroke="#EDE4AE" stroke-opacity="0.5" stroke-width="2"/>
<path d="M1327 130V234.964L1306 258.657V295.849L1327 310.726V338" stroke="#EDE4AE" stroke-opacity="0.5" stroke-width="2"/>
<ellipse cx="1360" cy="115.5" rx="5" ry="5.5" fill="#EDE4AE" fill-opacity="0.5"/>
<path d="M1360 111C1362.12 111 1364 112.923 1364 115.5C1364 118.077 1362.12 120 1360 120C1357.88 120 1356 118.077 1356 115.5C1356 112.923 1357.88 111 1360 111Z" stroke="#EDE4AE" stroke-opacity="0.5" stroke-width="2"/>
<circle cx="644.5" cy="148.5" r="5.5" fill="#EDE4AE" fill-opacity="0.5"/>
<circle cx="644.5" cy="148.5" r="4.5" stroke="#EDE4AE" stroke-opacity="0.5" stroke-width="2"/>
<circle cx="890" cy="147.75" r="5" fill="#EDE4AE" fill-opacity="0.5"/>
<circle cx="890" cy="147.75" r="4" stroke="#EDE4AE" stroke-opacity="0.5" stroke-width="2"/>
<circle cx="900" cy="189" r="5" fill="#EDE4AE" fill-opacity="0.5"/>
<circle cx="900" cy="189" r="4" stroke="#EDE4AE" stroke-opacity="0.5" stroke-width="2"/>
<circle cx="1298" cy="240" r="5" fill="#EDE4AE" fill-opacity="0.5"/>
<circle cx="1298" cy="240" r="4" stroke="#EDE4AE" stroke-opacity="0.5" stroke-width="2"/>
<path d="M900.164 187V234.343L891 269.254V315.275L910 356.534V397" stroke="#EDE4AE" stroke-opacity="0.5" stroke-width="2"/>
<circle cx="1212.5" cy="241.5" r="5.5" fill="#EDE4AE" fill-opacity="0.5"/>
<circle cx="1212.5" cy="241.5" r="4.5" stroke="#EDE4AE" stroke-opacity="0.5" stroke-width="2"/>
<circle cx="741" cy="377" r="5" fill="#EDE4AE" fill-opacity="0.5"/>
<circle cx="741" cy="377" r="4" stroke="#EDE4AE" stroke-opacity="0.5" stroke-width="2"/>
<circle cx="1032" cy="594" r="5" fill="#EDE4AE" fill-opacity="0.5"/>
<circle cx="1032" cy="594" r="4" stroke="#EDE4AE" stroke-opacity="0.5" stroke-width="2"/>
<path d="M1076 328V429.769L1035 482.774V597" stroke="#EDE4AE" stroke-opacity="0.5" stroke-width="2"/>
<ellipse cx="1327" cy="337.5" rx="5" ry="5.5" fill="#EDE4AE" fill-opacity="0.5"/>
<path d="M1327 333C1329.12 333 1331 334.923 1331 337.5C1331 340.077 1329.12 342 1327 342C1324.88 342 1323 340.077 1323 337.5C1323 334.923 1324.88 333 1327 333Z" stroke="#EDE4AE" stroke-opacity="0.5" stroke-width="2"/>
<ellipse cx="1076" cy="330.5" rx="5" ry="5.5" fill="#EDE4AE" fill-opacity="0.5"/>
<path d="M1076 326C1078.12 326 1080 327.923 1080 330.5C1080 333.077 1078.12 335 1076 335C1073.88 335 1072 333.077 1072 330.5C1072 327.923 1073.88 326 1076 326Z" stroke="#EDE4AE" stroke-opacity="0.5" stroke-width="2"/>
<ellipse cx="909.5" cy="398" rx="5.5" ry="5" fill="#EDE4AE" fill-opacity="0.5"/>
<path d="M909.5 394C912.077 394 914 395.878 914 398C914 400.122 912.077 402 909.5 402C906.923 402 905 400.122 905 398C905 395.878 906.923 394 909.5 394Z" stroke="#EDE4AE" stroke-opacity="0.5" stroke-width="2"/>
<path d="M778.143 296V442.338L818 505.427L778.143 532.679V591.662L746 630.486V738" stroke="#B7AE8F" stroke-opacity="0.3" stroke-width="2"/>
<path d="M428 330V454.915L397 514.949V660" stroke="#B7AE8F" stroke-opacity="0.3" stroke-width="2"/>
<path d="M478 308V506.716L504 559.01V720" stroke="#B7AE8F" stroke-opacity="0.3" stroke-width="2"/>
<path d="M598 308V454.284L568 525.187V717.745L598 747.972V870" stroke="#B7AE8F" stroke-opacity="0.3" stroke-width="2"/>
<path d="M664 244L635.349 332.925V489.105L652.238 521.237V631.833L626 723" stroke="#B7AE8F" stroke-opacity="0.3" stroke-width="2"/>
<path d="M932.467 244V380.063L903 444.73V540.049H937V672" stroke="#B7AE8F" stroke-opacity="0.3" stroke-width="2"/>
<path d="M829.616 304V358.276L820 381.857V420.412L849 485.542V518.482L836.637 547.678V645" stroke="#B7AE8F" stroke-opacity="0.3" stroke-width="2"/>
<ellipse cx="535" cy="326.5" rx="5" ry="7.5" fill="#B7AE8F" fill-opacity="0.3"/>
<path d="M535 320C535.942 320 536.918 320.573 537.703 321.751C538.484 322.922 539 324.599 539 326.5C539 328.401 538.484 330.078 537.703 331.249C536.918 332.427 535.942 333 535 333C534.058 333 533.082 332.427 532.297 331.249C531.516 330.078 531 328.401 531 326.5C531 324.599 531.516 322.922 532.297 321.751C533.082 320.573 534.058 320 535 320Z" stroke="#B7AE8F" stroke-opacity="0.3" stroke-width="2"/>
<path d="M534 326V424.146L505 454" stroke="#B7AE8F" stroke-opacity="0.3" stroke-width="2"/>
<ellipse cx="662" cy="246" rx="5" ry="8" fill="#B7AE8F" fill-opacity="0.3"/>
<path d="M662 239C662.911 239 663.888 239.594 664.688 240.873C665.478 242.138 666 243.948 666 246C666 248.052 665.478 249.862 664.688 251.127C663.888 252.406 662.911 253 662 253C661.089 253 660.112 252.406 659.312 251.127C658.522 249.862 658 248.052 658 246C658 243.948 658.522 242.138 659.312 240.873C660.112 239.594 661.089 239 662 239Z" stroke="#B7AE8F" stroke-opacity="0.3" stroke-width="2"/>
<ellipse cx="778" cy="294.5" rx="5" ry="7.5" fill="#B7AE8F" fill-opacity="0.3"/>
<path d="M778 288C778.942 288 779.918 288.573 780.703 289.751C781.484 290.922 782 292.599 782 294.5C782 296.401 781.484 298.078 780.703 299.249C779.918 300.427 778.942 301 778 301C777.058 301 776.082 300.427 775.297 299.249C774.516 298.078 774 296.401 774 294.5C774 292.599 774.516 290.922 775.297 289.751C776.082 288.573 777.058 288 778 288Z" stroke="#B7AE8F" stroke-opacity="0.3" stroke-width="2"/>
<ellipse cx="832" cy="310.5" rx="5" ry="7.5" fill="#B7AE8F" fill-opacity="0.3"/>
<path d="M832 304C832.942 304 833.918 304.573 834.703 305.751C835.484 306.922 836 308.599 836 310.5C836 312.401 835.484 314.078 834.703 315.249C833.918 316.427 832.942 317 832 317C831.058 317 830.082 316.427 829.297 315.249C828.516 314.078 828 312.401 828 310.5C828 308.599 828.516 306.922 829.297 305.751C830.082 304.573 831.058 304 832 304Z" stroke="#B7AE8F" stroke-opacity="0.3" stroke-width="2"/>
<ellipse cx="931" cy="243" rx="5" ry="8" fill="#B7AE8F" fill-opacity="0.3"/>
<path d="M931 236C931.911 236 932.888 236.594 933.688 237.873C934.478 239.138 935 240.948 935 243C935 245.052 934.478 246.862 933.688 248.127C932.888 249.406 931.911 250 931 250C930.089 250 929.112 249.406 928.312 248.127C927.522 246.862 927 245.052 927 243C927 240.948 927.522 239.138 928.312 237.873C929.112 236.594 930.089 236 931 236Z" stroke="#B7AE8F" stroke-opacity="0.3" stroke-width="2"/>
<ellipse cx="1006" cy="362.5" rx="5" ry="7.5" fill="#B7AE8F" fill-opacity="0.3"/>
<path d="M1006 356C1006.94 356 1007.92 356.573 1008.7 357.751C1009.48 358.922 1010 360.599 1010 362.5C1010 364.401 1009.48 366.078 1008.7 367.249C1007.92 368.427 1006.94 369 1006 369C1005.06 369 1004.08 368.427 1003.3 367.249C1002.52 366.078 1002 364.401 1002 362.5C1002 360.599 1002.52 358.922 1003.3 357.751C1004.08 356.573 1005.06 356 1006 356Z" stroke="#B7AE8F" stroke-opacity="0.3" stroke-width="2"/>
<path d="M1006 363V510.858L985 544.233V596.624L1006 617.58V656" stroke="#B7AE8F" stroke-opacity="0.3" stroke-width="2"/>
<ellipse cx="505.5" cy="450" rx="5.5" ry="8" fill="#B7AE8F" fill-opacity="0.3"/>
<path d="M505.5 443C506.595 443 507.696 443.645 508.565 444.91C509.432 446.171 510 447.967 510 450C510 452.033 509.432 453.829 508.565 455.09C507.696 456.355 506.595 457 505.5 457C504.405 457 503.304 456.355 502.435 455.09C501.568 453.829 501 452.033 501 450C501 447.967 501.568 446.171 502.435 444.91C503.304 443.645 504.405 443 505.5 443Z" stroke="#B7AE8F" stroke-opacity="0.3" stroke-width="2"/>
<ellipse cx="539" cy="603" rx="5" ry="7" fill="#B7AE8F" fill-opacity="0.3"/>
<path d="M539 597C539.974 597 540.95 597.551 541.722 598.632C542.492 599.71 543 601.251 543 603C543 604.749 542.492 606.29 541.722 607.368C540.95 608.449 539.974 609 539 609C538.026 609 537.05 608.449 536.278 607.368C535.508 606.29 535 604.749 535 603C535 601.251 535.508 599.71 536.278 598.632C537.05 597.551 538.026 597 539 597Z" stroke="#B7AE8F" stroke-opacity="0.3" stroke-width="2"/>
<ellipse cx="810.5" cy="601" rx="5.5" ry="7" fill="#B7AE8F" fill-opacity="0.3"/>
<path d="M810.5 595C812.774 595 815 597.448 815 601C815 604.552 812.774 607 810.5 607C808.226 607 806 604.552 806 601C806 597.448 808.226 595 810.5 595Z" stroke="#B7AE8F" stroke-opacity="0.3" stroke-width="2"/>
<path d="M539.164 602V668.73L530 717.94V782.806L549 840.962V898" stroke="#B7AE8F" stroke-opacity="0.3" stroke-width="2"/>
<path d="M811 601V694.825L798 743.692V849" stroke="#B7AE8F" stroke-opacity="0.3" stroke-width="2"/>
<ellipse cx="428" cy="333.5" rx="5" ry="7.5" fill="#B7AE8F" fill-opacity="0.3"/>
<path d="M428 327C428.942 327 429.918 327.573 430.703 328.751C431.484 329.922 432 331.599 432 333.5C432 335.401 431.484 337.078 430.703 338.249C429.918 339.427 428.942 340 428 340C427.058 340 426.082 339.427 425.297 338.249C424.516 337.078 424 335.401 424 333.5C424 331.599 424.516 329.922 425.297 328.751C426.082 327.573 427.058 327 428 327Z" stroke="#B7AE8F" stroke-opacity="0.3" stroke-width="2"/>
<ellipse cx="395" cy="653" rx="5" ry="7" fill="#B7AE8F" fill-opacity="0.3"/>
<path d="M395 647C395.974 647 396.95 647.551 397.722 648.632C398.492 649.71 399 651.251 399 653C399 654.749 398.492 656.29 397.722 657.368C396.95 658.449 395.974 659 395 659C394.026 659 393.05 658.449 392.278 657.368C391.508 656.29 391 654.749 391 653C391 651.251 391.508 649.71 392.278 648.632C393.05 647.551 394.026 647 395 647Z" stroke="#B7AE8F" stroke-opacity="0.3" stroke-width="2"/>
<ellipse cx="836.5" cy="638" rx="5.5" ry="8" fill="#B7AE8F" fill-opacity="0.3"/>
<path d="M836.5 631C837.595 631 838.696 631.645 839.565 632.91C840.432 634.171 841 635.967 841 638C841 640.033 840.432 641.829 839.565 643.09C838.696 644.355 837.595 645 836.5 645C835.405 645 834.304 644.355 833.435 643.09C832.568 641.829 832 640.033 832 638C832 635.967 832.568 634.171 833.435 632.91C834.304 631.645 835.405 631 836.5 631Z" stroke="#B7AE8F" stroke-opacity="0.3" stroke-width="2"/>
<ellipse cx="503" cy="720" rx="5" ry="7" fill="#B7AE8F" fill-opacity="0.3"/>
<path d="M503 714C503.974 714 504.95 714.551 505.722 715.632C506.492 716.71 507 718.251 507 720C507 721.749 506.492 723.29 505.722 724.368C504.95 725.449 503.974 726 503 726C502.026 726 501.05 725.449 500.278 724.368C499.508 723.29 499 721.749 499 720C499 718.251 499.508 716.71 500.278 715.632C501.05 714.551 502.026 714 503 714Z" stroke="#B7AE8F" stroke-opacity="0.3" stroke-width="2"/>
<ellipse cx="688" cy="863" rx="5" ry="7" fill="#B7AE8F" fill-opacity="0.3"/>
<path d="M688 857C688.974 857 689.95 857.551 690.722 858.632C691.492 859.71 692 861.251 692 863C692 864.749 691.492 866.29 690.722 867.368C689.95 868.449 688.974 869 688 869C687.026 869 686.05 868.449 685.278 867.368C684.508 866.29 684 864.749 684 863C684 861.251 684.508 859.71 685.278 858.632C686.05 857.551 687.026 857 688 857Z" stroke="#B7AE8F" stroke-opacity="0.3" stroke-width="2"/>
<path d="M732 482V625.764L691 700.64V862" stroke="#B7AE8F" stroke-opacity="0.3" stroke-width="2"/>
<ellipse cx="1006" cy="652.5" rx="5" ry="7.5" fill="#B7AE8F" fill-opacity="0.3"/>
<path d="M1006 646C1006.94 646 1007.92 646.573 1008.7 647.751C1009.48 648.922 1010 650.599 1010 652.5C1010 654.401 1009.48 656.078 1008.7 657.249C1007.92 658.427 1006.94 659 1006 659C1005.06 659 1004.08 658.427 1003.3 657.249C1002.52 656.078 1002 654.401 1002 652.5C1002 650.599 1002.52 648.922 1003.3 647.751C1004.08 646.573 1005.06 646 1006 646Z" stroke="#B7AE8F" stroke-opacity="0.3" stroke-width="2"/>
<ellipse cx="478.5" cy="313" rx="5.5" ry="7" fill="#B7AE8F" fill-opacity="0.3"/>
<path d="M478.5 307C480.774 307 483 309.448 483 313C483 316.552 480.774 319 478.5 319C476.226 319 474 316.552 474 313C474 309.448 476.226 307 478.5 307Z" stroke="#B7AE8F" stroke-opacity="0.3" stroke-width="2"/>
<ellipse cx="938" cy="665" rx="5" ry="7" fill="#B7AE8F" fill-opacity="0.3"/>
<path d="M938 659C938.974 659 939.95 659.551 940.722 660.632C941.492 661.71 942 663.251 942 665C942 666.749 941.492 668.29 940.722 669.368C939.95 670.449 938.974 671 938 671C937.026 671 936.05 670.449 935.278 669.368C934.508 668.29 934 666.749 934 665C934 663.251 934.508 661.71 935.278 660.632C936.05 659.551 937.026 659 938 659Z" stroke="#B7AE8F" stroke-opacity="0.3" stroke-width="2"/>
<ellipse cx="745.5" cy="734" rx="5.5" ry="8" fill="#B7AE8F" fill-opacity="0.3"/>
<path d="M745.5 727C746.595 727 747.696 727.645 748.565 728.91C749.432 730.171 750 731.967 750 734C750 736.033 749.432 737.829 748.565 739.09C747.696 740.355 746.595 741 745.5 741C744.405 741 743.304 740.355 742.435 739.09C741.568 737.829 741 736.033 741 734C741 731.967 741.568 730.171 742.435 728.91C743.304 727.645 744.405 727 745.5 727Z" stroke="#B7AE8F" stroke-opacity="0.3" stroke-width="2"/>
<ellipse cx="731.5" cy="490" rx="5.5" ry="8" fill="#B7AE8F" fill-opacity="0.3"/>
<path d="M731.5 483C732.595 483 733.696 483.645 734.565 484.91C735.432 486.171 736 487.967 736 490C736 492.033 735.432 493.829 734.565 495.09C733.696 496.355 732.595 497 731.5 497C730.405 497 729.304 496.355 728.435 495.09C727.568 493.829 727 492.033 727 490C727 487.967 727.568 486.171 728.435 484.91C729.304 483.645 730.405 483 731.5 483Z" stroke="#B7AE8F" stroke-opacity="0.3" stroke-width="2"/>
<ellipse cx="648" cy="722" rx="5" ry="8" fill="#B7AE8F" fill-opacity="0.3"/>
<path d="M648 715C648.911 715 649.888 715.594 650.688 716.873C651.478 718.138 652 719.948 652 722C652 724.052 651.478 725.862 650.688 727.127C649.888 728.406 648.911 729 648 729C647.089 729 646.112 728.406 645.312 727.127C644.522 725.862 644 724.052 644 722C644 719.948 644.522 718.138 645.312 716.873C646.112 715.594 647.089 715 648 715Z" stroke="#B7AE8F" stroke-opacity="0.3" stroke-width="2"/>
<ellipse cx="797.5" cy="849" rx="5.5" ry="7" fill="#B7AE8F" fill-opacity="0.3"/>
<path d="M797.5 843C799.774 843 802 845.448 802 849C802 852.552 799.774 855 797.5 855C795.226 855 793 852.552 793 849C793 845.448 795.226 843 797.5 843Z" stroke="#B7AE8F" stroke-opacity="0.3" stroke-width="2"/>
<ellipse cx="593.5" cy="312" rx="5.5" ry="8" fill="#B7AE8F" fill-opacity="0.3"/>
<path d="M593.5 305C594.595 305 595.696 305.645 596.565 306.91C597.432 308.171 598 309.967 598 312C598 314.033 597.432 315.829 596.565 317.09C595.696 318.355 594.595 319 593.5 319C592.405 319 591.304 318.355 590.435 317.09C589.568 315.829 589 314.033 589 312C589 309.967 589.568 308.171 590.435 306.91C591.304 305.645 592.405 305 593.5 305Z" stroke="#B7AE8F" stroke-opacity="0.3" stroke-width="2"/>
<ellipse cx="599.5" cy="863" rx="5.5" ry="7" fill="#B7AE8F" fill-opacity="0.3"/>
<path d="M599.5 857C601.774 857 604 859.448 604 863C604 866.552 601.774 869 599.5 869C597.226 869 595 866.552 595 863C595 859.448 597.226 857 599.5 857Z" stroke="#B7AE8F" stroke-opacity="0.3" stroke-width="2"/>
<path d="M1411 -12V50.1929L1424 68.64V100" stroke="#E4EBB3" stroke-opacity="0.5" stroke-width="2"/>
<path d="M810 0V88.5763L774 131.146V234" stroke="#EDE4AE" stroke-opacity="0.5" stroke-width="2"/>
<path d="M896 -5V135.838L922 172.9V287" stroke="#EDE4AE" stroke-opacity="0.5" stroke-width="2"/>
<path d="M917 -3V102.047L937 134" stroke="#EDE4AE" stroke-opacity="0.5" stroke-width="2"/>
<path d="M1016 -5V98.5963L986 148.809V285.175L1016 306.582V393" stroke="#EDE4AE" stroke-opacity="0.5" stroke-width="2"/>
<path d="M1065 -5L1036.35 57.9345V168.466L1053.24 191.207V269.479L1027 334" stroke="#EDE4AE" stroke-opacity="0.5" stroke-width="2"/>
<path d="M1132.47 166.628V140.756V114.884M1132.47 -5.00001V3.19787V25.74M1132.47 114.884L1097.03 156.638V235.023L1120.06 259.614V390M1132.47 114.884V91.5732V48.2821M1132.47 48.2821V25.74M1132.47 48.2821L1176 91.5732V207.87M1132.47 25.74L1074 181.229V294.196L1102.35 317.507V390" stroke="#EDE4AE" stroke-opacity="0.5" stroke-width="2"/>
<path d="M1395 -5V79.7697L1417 111.987V206" stroke="#EDE4AE" stroke-opacity="0.5" stroke-width="2"/>
<path d="M1252.62 -4V34.3589L1243 51.0252V78.2733L1272 124.304V147.584L1259.64 168.218V237" stroke="#EDE4AE" stroke-opacity="0.5" stroke-width="2"/>
<ellipse cx="769" cy="17.5" rx="5" ry="5.5" fill="#EDE4AE" fill-opacity="0.5"/>
<path d="M769 13C771.122 13 773 14.9229 773 17.5C773 20.0771 771.122 22 769 22C766.878 22 765 20.0771 765 17.5C765 14.9229 766.878 13 769 13Z" stroke="#EDE4AE" stroke-opacity="0.5" stroke-width="2"/>
<path d="M769 17V86.7755L756 108" stroke="#EDE4AE" stroke-opacity="0.5" stroke-width="2"/>
<ellipse cx="848.5" cy="21" rx="5.5" ry="5" fill="#EDE4AE" fill-opacity="0.5"/>
<path d="M848.5 17C851.077 17 853 18.8784 853 21C853 23.1216 851.077 25 848.5 25C845.923 25 844 23.1216 844 21C844 18.8784 845.923 17 848.5 17Z" stroke="#EDE4AE" stroke-opacity="0.5" stroke-width="2"/>
<path d="M848 18V51.046L832 73.5172V97.046L848 114.23V153.885L832 171.069V202" stroke="#EDE4AE" stroke-opacity="0.5" stroke-width="2"/>
<circle cx="1391" cy="93" r="5" fill="#EDE4AE" fill-opacity="0.5"/>
<circle cx="1391" cy="93" r="4" stroke="#EDE4AE" stroke-opacity="0.5" stroke-width="2"/>
<path d="M1391 93V197.964L1370 221.657V258.849L1391 273.726V301" stroke="#EDE4AE" stroke-opacity="0.5" stroke-width="2"/>
<ellipse cx="1424" cy="100.5" rx="5" ry="5.5" fill="#E4EBB3" fill-opacity="0.5"/>
<path d="M1424 96C1426.12 96 1428 97.9229 1428 100.5C1428 103.077 1426.12 105 1424 105C1421.88 105 1420 103.077 1420 100.5C1420 97.9229 1421.88 96 1424 96Z" stroke="#E4EBB3" stroke-opacity="0.5" stroke-width="2"/>
<circle cx="756.5" cy="108.5" r="5.5" fill="#EDE4AE" fill-opacity="0.5"/>
<circle cx="756.5" cy="108.5" r="4.5" stroke="#EDE4AE" stroke-opacity="0.5" stroke-width="2"/>
<circle cx="938" cy="132" r="5" fill="#EDE4AE" fill-opacity="0.5"/>
<circle cx="938" cy="132" r="4" stroke="#EDE4AE" stroke-opacity="0.5" stroke-width="2"/>
<ellipse cx="1131.5" cy="165" rx="5.5" ry="5" fill="#EDE4AE" fill-opacity="0.5"/>
<path d="M1131.5 161C1134.08 161 1136 162.878 1136 165C1136 167.122 1134.08 169 1131.5 169C1128.92 169 1127 167.122 1127 165C1127 162.878 1128.92 161 1131.5 161Z" stroke="#EDE4AE" stroke-opacity="0.5" stroke-width="2"/>
<circle cx="951" cy="235" r="5" fill="#EDE4AE" fill-opacity="0.5"/>
<circle cx="951" cy="235" r="4" stroke="#EDE4AE" stroke-opacity="0.5" stroke-width="2"/>
<ellipse cx="1233.5" cy="206" rx="5.5" ry="5" fill="#EDE4AE" fill-opacity="0.5"/>
<path d="M1233.5 202C1236.08 202 1238 203.878 1238 206C1238 208.122 1236.08 210 1233.5 210C1230.92 210 1229 208.122 1229 206C1229 203.878 1230.92 202 1233.5 202Z" stroke="#EDE4AE" stroke-opacity="0.5" stroke-width="2"/>
<circle cx="1417" cy="206" r="5" fill="#DCD4AE" fill-opacity="0.5"/>
<circle cx="1417" cy="206" r="4" stroke="#E4EBB3" stroke-opacity="0.5" stroke-width="2"/>
<path d="M951.164 235V282.343L942 317.254V363.275L961 404.534V445" stroke="#EDE4AE" stroke-opacity="0.5" stroke-width="2"/>
<ellipse cx="1176" cy="211.5" rx="5" ry="5.5" fill="#EDE4AE" fill-opacity="0.5"/>
<path d="M1176 207C1178.12 207 1180 208.923 1180 211.5C1180 214.077 1178.12 216 1176 216C1173.88 216 1172 214.077 1172 211.5C1172 208.923 1173.88 207 1176 207Z" stroke="#EDE4AE" stroke-opacity="0.5" stroke-width="2"/>
<path d="M1234 206V272.585L1221 307.265V382" stroke="#EDE4AE" stroke-opacity="0.5" stroke-width="2"/>
<circle cx="774" cy="234" r="5" fill="#EDE4AE" fill-opacity="0.5"/>
<circle cx="774" cy="234" r="4" stroke="#EDE4AE" stroke-opacity="0.5" stroke-width="2"/>
<circle cx="1259.5" cy="236.5" r="5.5" fill="#EDE4AE" fill-opacity="0.5"/>
<circle cx="1259.5" cy="236.5" r="4.5" stroke="#EDE4AE" stroke-opacity="0.5" stroke-width="2"/>
<circle cx="832" cy="198" r="5" fill="#EDE4AE" fill-opacity="0.5"/>
<circle cx="832" cy="198" r="4" stroke="#EDE4AE" stroke-opacity="0.5" stroke-width="2"/>
<ellipse cx="1391" cy="299.5" rx="5" ry="5.5" fill="#EDE4AE" fill-opacity="0.5"/>
<path d="M1391 295C1393.12 295 1395 296.923 1395 299.5C1395 302.077 1393.12 304 1391 304C1388.88 304 1387 302.077 1387 299.5C1387 296.923 1388.88 295 1391 295Z" stroke="#EDE4AE" stroke-opacity="0.5" stroke-width="2"/>
<ellipse cx="921.5" cy="287" rx="5.5" ry="5" fill="#EDE4AE" fill-opacity="0.5"/>
<path d="M921.5 283C924.077 283 926 284.878 926 287C926 289.122 924.077 291 921.5 291C918.923 291 917 289.122 917 287C917 284.878 918.923 283 921.5 283Z" stroke="#EDE4AE" stroke-opacity="0.5" stroke-width="2"/>
<ellipse cx="1027" cy="333.5" rx="5" ry="5.5" fill="#EDE4AE" fill-opacity="0.5"/>
<path d="M1027 329C1029.12 329 1031 330.923 1031 333.5C1031 336.077 1029.12 338 1027 338C1024.88 338 1023 336.077 1023 333.5C1023 330.923 1024.88 329 1027 329Z" stroke="#EDE4AE" stroke-opacity="0.5" stroke-width="2"/>
<ellipse cx="1220.5" cy="382" rx="5.5" ry="5" fill="#EDE4AE" fill-opacity="0.5"/>
<path d="M1220.5 378C1223.08 378 1225 379.878 1225 382C1225 384.122 1223.08 386 1220.5 386C1217.92 386 1216 384.122 1216 382C1216 379.878 1217.92 378 1220.5 378Z" stroke="#EDE4AE" stroke-opacity="0.5" stroke-width="2"/>
<circle cx="1016.5" cy="392.5" r="5.5" fill="#EDE4AE" fill-opacity="0.5"/>
<circle cx="1016.5" cy="392.5" r="4.5" stroke="#EDE4AE" stroke-opacity="0.5" stroke-width="2"/>
<ellipse cx="1102" cy="387.5" rx="5" ry="5.5" fill="#EDE4AE" fill-opacity="0.5"/>
<path d="M1102 383C1104.12 383 1106 384.923 1106 387.5C1106 390.077 1104.12 392 1102 392C1099.88 392 1098 390.077 1098 387.5C1098 384.923 1099.88 383 1102 383Z" stroke="#EDE4AE" stroke-opacity="0.5" stroke-width="2"/>
<ellipse cx="1120" cy="387.5" rx="5" ry="5.5" fill="#EDE4AE" fill-opacity="0.5"/>
<path d="M1120 383C1122.12 383 1124 384.923 1124 387.5C1124 390.077 1122.12 392 1120 392C1117.88 392 1116 390.077 1116 387.5C1116 384.923 1117.88 383 1120 383Z" stroke="#EDE4AE" stroke-opacity="0.5" stroke-width="2"/>
<ellipse cx="961.5" cy="445" rx="5.5" ry="5" fill="#EDE4AE" fill-opacity="0.5"/>
<path d="M961.5 441C964.077 441 966 442.878 966 445C966 447.122 964.077 449 961.5 449C958.923 449 957 447.122 957 445C957 442.878 958.923 441 961.5 441Z" stroke="#EDE4AE" stroke-opacity="0.5" stroke-width="2"/>
<path d="M487.143 -11V92.6284L527 137.305L487.143 156.603V198.372L455 225.865V302" stroke="#EDE4AE" stroke-opacity="0.5" stroke-width="2"/>
<path d="M718 -14V48.1929L731 66.64V98" stroke="#EDE4AE" stroke-opacity="0.5" stroke-width="2"/>
<path d="M107 -9V79.5763L76 122.146V225" stroke="#EDE4AE" stroke-opacity="0.5" stroke-width="2"/>
<path d="M172 -4V136.838L198 173.9V288" stroke="#EDE4AE" stroke-opacity="0.5" stroke-width="2"/>
<path d="M219 -4V101.047L239 133" stroke="#EDE4AE" stroke-opacity="0.5" stroke-width="2"/>
<path d="M292 -4V99.5963L262 149.809V286.175L292 307.582V394" stroke="#EDE4AE" stroke-opacity="0.5" stroke-width="2"/>
<path d="M341 -4L312.349 58.9345V169.466L329.238 192.207V270.479L303 335" stroke="#EDE4AE" stroke-opacity="0.5" stroke-width="2"/>
<path d="M404.467 172.842V146.184V119.526M404.467 -3.99999V4.44695V27.6739M404.467 119.526L369.032 162.548V243.315L392.065 268.653V403M404.467 119.526V95.5071V50.9008M404.467 50.9008V27.6739M404.467 50.9008L448 95.5071V215.337M404.467 27.6739L346 187.887V304.286L374.347 328.304V403" stroke="#EDE4AE" stroke-opacity="0.5" stroke-width="2"/>
<path d="M587.467 -4V92.3249L558 138.106V205.586H592V299" stroke="#EDE4AE" stroke-opacity="0.5" stroke-width="2"/>
<path d="M702 -7V77.7697L724 109.987V204" stroke="#EDE4AE" stroke-opacity="0.5" stroke-width="2"/>
<path d="M528.616 -3V35.3589L519 52.0252V79.2733L548 125.304V148.584L535.637 169.218V238" stroke="#EDE4AE" stroke-opacity="0.5" stroke-width="2"/>
<ellipse cx="60" cy="18.5" rx="5" ry="5.5" fill="#EDE4AE" fill-opacity="0.5"/>
<path d="M60 14C62.1216 14 64 15.9229 64 18.5C64 21.0771 62.1216 23 60 23C57.8784 23 56 21.0771 56 18.5C56 15.9229 57.8784 14 60 14Z" stroke="#EDE4AE" stroke-opacity="0.5" stroke-width="2"/>
<path d="M59 18V87.7755L32 109" stroke="#EDE4AE" stroke-opacity="0.5" stroke-width="2"/>
<ellipse cx="128.5" cy="70" rx="5.5" ry="5" fill="#EDE4AE" fill-opacity="0.5"/>
<path d="M128.5 66C131.077 66 133 67.8784 133 70C133 72.1216 131.077 74 128.5 74C125.923 74 124 72.1216 124 70C124 67.8784 125.923 66 128.5 66Z" stroke="#EDE4AE" stroke-opacity="0.5" stroke-width="2"/>
<path d="M128 70V103.046L112 125.517V149.046L128 166.23V205.885L112 223.069V254" stroke="#EDE4AE" stroke-opacity="0.5" stroke-width="2"/>
<circle cx="692" cy="77" r="5" fill="#EDE4AE" fill-opacity="0.5"/>
<circle cx="692" cy="77" r="4" stroke="#EDE4AE" stroke-opacity="0.5" stroke-width="2"/>
<path d="M692 77V181.964L671 205.657V242.849L692 257.726V285" stroke="#EDE4AE" stroke-opacity="0.5" stroke-width="2"/>
<ellipse cx="731" cy="98.5" rx="5" ry="5.5" fill="#EDE4AE" fill-opacity="0.5"/>
<path d="M731 94C733.122 94 735 95.9229 735 98.5C735 101.077 733.122 103 731 103C728.878 103 727 101.077 727 98.5C727 95.9229 728.878 94 731 94Z" stroke="#EDE4AE" stroke-opacity="0.5" stroke-width="2"/>
<circle cx="32.5" cy="109.5" r="5.5" fill="#EDE4AE" fill-opacity="0.5"/>
<circle cx="32.5" cy="109.5" r="4.5" stroke="#EDE4AE" stroke-opacity="0.5" stroke-width="2"/>
<circle cx="238" cy="133" r="5" fill="#EDE4AE" fill-opacity="0.5"/>
<circle cx="238" cy="133" r="4" stroke="#EDE4AE" stroke-opacity="0.5" stroke-width="2"/>
<ellipse cx="405.5" cy="175" rx="5.5" ry="5" fill="#EDE4AE" fill-opacity="0.5"/>
<path d="M405.5 171C408.077 171 410 172.878 410 175C410 177.122 408.077 179 405.5 179C402.923 179 401 177.122 401 175C401 172.878 402.923 171 405.5 171Z" stroke="#EDE4AE" stroke-opacity="0.5" stroke-width="2"/>
<circle cx="233" cy="205" r="5" fill="#EDE4AE" fill-opacity="0.5"/>
<circle cx="233" cy="205" r="4" stroke="#EDE4AE" stroke-opacity="0.5" stroke-width="2"/>
<ellipse cx="509.5" cy="207" rx="5.5" ry="5" fill="#EDE4AE" fill-opacity="0.5"/>
<path d="M509.5 203C512.077 203 514 204.878 514 207C514 209.122 512.077 211 509.5 211C506.923 211 505 209.122 505 207C505 204.878 506.923 203 509.5 203Z" stroke="#EDE4AE" stroke-opacity="0.5" stroke-width="2"/>
<circle cx="724" cy="204" r="5" fill="#EDE4AE" fill-opacity="0.5"/>
<circle cx="724" cy="204" r="4" stroke="#EDE4AE" stroke-opacity="0.5" stroke-width="2"/>
<path d="M233.164 204V251.343L224 286.254V332.275L243 373.534V414" stroke="#EDE4AE" stroke-opacity="0.5" stroke-width="2"/>
<ellipse cx="449" cy="212.5" rx="5" ry="5.5" fill="#EDE4AE" fill-opacity="0.5"/>
<path d="M449 208C451.122 208 453 209.923 453 212.5C453 215.077 451.122 217 449 217C446.878 217 445 215.077 445 212.5C445 209.923 446.878 208 449 208Z" stroke="#EDE4AE" stroke-opacity="0.5" stroke-width="2"/>
<path d="M510 207V273.585L497 308.265V383" stroke="#EDE4AE" stroke-opacity="0.5" stroke-width="2"/>
<circle cx="76" cy="225" r="5" fill="#EDE4AE" fill-opacity="0.5"/>
<circle cx="76" cy="225" r="4" stroke="#EDE4AE" stroke-opacity="0.5" stroke-width="2"/>
<circle cx="535.5" cy="237.5" r="5.5" fill="#EDE4AE" fill-opacity="0.5"/>
<circle cx="535.5" cy="237.5" r="4.5" stroke="#EDE4AE" stroke-opacity="0.5" stroke-width="2"/>
<circle cx="112" cy="254" r="5" fill="#EDE4AE" fill-opacity="0.5"/>
<circle cx="112" cy="254" r="4" stroke="#EDE4AE" stroke-opacity="0.5" stroke-width="2"/>
<ellipse cx="692" cy="282.5" rx="5" ry="5.5" fill="#EDE4AE" fill-opacity="0.5"/>
<path d="M692 278C694.122 278 696 279.923 696 282.5C696 285.077 694.122 287 692 287C689.878 287 688 285.077 688 282.5C688 279.923 689.878 278 692 278Z" stroke="#EDE4AE" stroke-opacity="0.5" stroke-width="2"/>
<ellipse cx="197.5" cy="288" rx="5.5" ry="5" fill="#EDE4AE" fill-opacity="0.5"/>
<path d="M197.5 284C200.077 284 202 285.878 202 288C202 290.122 200.077 292 197.5 292C194.923 292 193 290.122 193 288C193 285.878 194.923 284 197.5 284Z" stroke="#EDE4AE" stroke-opacity="0.5" stroke-width="2"/>
<circle cx="593" cy="294" r="5" fill="#EDE4AE" fill-opacity="0.5"/>
<circle cx="593" cy="294" r="4" stroke="#EDE4AE" stroke-opacity="0.5" stroke-width="2"/>
<circle cx="455.5" cy="301.5" r="5.5" fill="#EDE4AE" fill-opacity="0.5"/>
<circle cx="455.5" cy="301.5" r="4.5" stroke="#EDE4AE" stroke-opacity="0.5" stroke-width="2"/>
<ellipse cx="303" cy="334.5" rx="5" ry="5.5" fill="#EDE4AE" fill-opacity="0.5"/>
<path d="M303 330C305.122 330 307 331.923 307 334.5C307 337.077 305.122 339 303 339C300.878 339 299 337.077 299 334.5C299 331.923 300.878 330 303 330Z" stroke="#EDE4AE" stroke-opacity="0.5" stroke-width="2"/>
<ellipse cx="496.5" cy="383" rx="5.5" ry="5" fill="#EDE4AE" fill-opacity="0.5"/>
<path d="M496.5 379C499.077 379 501 380.878 501 383C501 385.122 499.077 387 496.5 387C493.923 387 492 385.122 492 383C492 380.878 493.923 379 496.5 379Z" stroke="#EDE4AE" stroke-opacity="0.5" stroke-width="2"/>
<circle cx="292.5" cy="393.5" r="5.5" fill="#EDE4AE" fill-opacity="0.5"/>
<circle cx="292.5" cy="393.5" r="4.5" stroke="#EDE4AE" stroke-opacity="0.5" stroke-width="2"/>
<ellipse cx="373" cy="403.5" rx="5" ry="5.5" fill="#EDE4AE" fill-opacity="0.5"/>
<path d="M373 399C375.122 399 377 400.923 377 403.5C377 406.077 375.122 408 373 408C370.878 408 369 406.077 369 403.5C369 400.923 370.878 399 373 399Z" stroke="#EDE4AE" stroke-opacity="0.5" stroke-width="2"/>
<ellipse cx="392" cy="404.5" rx="5" ry="5.5" fill="#EDE4AE" fill-opacity="0.5"/>
<path d="M392 400C394.122 400 396 401.923 396 404.5C396 407.077 394.122 409 392 409C389.878 409 388 407.077 388 404.5C388 401.923 389.878 400 392 400Z" stroke="#EDE4AE" stroke-opacity="0.5" stroke-width="2"/>
<ellipse cx="243.5" cy="414" rx="5.5" ry="5" fill="#EDE4AE" fill-opacity="0.5"/>
<path d="M243.5 410C246.077 410 248 411.878 248 414C248 416.122 246.077 418 243.5 418C240.923 418 239 416.122 239 414C239 411.878 240.923 410 243.5 410Z" stroke="#EDE4AE" stroke-opacity="0.5" stroke-width="2"/>
</g>
<defs>
<clipPath id="clip0_0_1">
<rect width="1440" height="1024" fill="white"/>
</clipPath>
</defs>
</svg>
